<svg version="1.2" xmlns="http://www.w3.org/2000/svg" viewBox="0 0 120 120" width="120" height="120">
	<title>New Project</title>
	<style>
		.s0 { fill: #f93e39 } 
	</style>
	<path id="Layer copy" fill-rule="evenodd" class="s0" d="m120 65.4c0 4.6-3.8 8.4-8.4 8.4h-1v24.4c0 0.7-0.4 1.3-1 1.4l-20.1 5.3v14.6h-58.8v-14.6l-20.2-5.3c-0.6-0.1-1-0.7-1-1.4v-24.4h-1c-4.7 0-8.4-3.8-8.4-8.4 0-4.7 3.8-8.5 8.4-8.5h1v-23.4c0-0.4 0.2-0.8 0.5-1.1 0.4-0.3 0.8-0.4 1.3-0.2l48.9 12.9 48.7-12.9c0.5-0.1 0.9 0 1.3 0.2 0.3 0.3 0.5 0.7 0.5 1.1v23.4h0.9c4.6 0 8.4 3.8 8.4 8.5zm-16.7-24.1l-40.5 10.7v52.4l40.5-10.7zm-5 25.9l-13 3.4v-16.7l13-3.6zm0 10.9l-29.7 7.8v-6l29.7-7.8zm-29.7 18.4v-6l29.7-7.9v6.1zm-11.1-44.5l-40.6-10.7v52.4l40.6 10.8zm-35.8 8.9l29.7 7.8v6l-29.7-7.8zm0 10.7l29.7 7.8v6l-29.7-7.8zm0 10.5l29.7 7.9v6l-29.7-7.8zm59.1-21l-12.2 3.2v-6l12.2-3.2zm-29.4-3.2v6l-29.7-7.7v-6zm29.4 13.7l-12.2 3.3v-6l12.2-3.3zm-20.8-31.1c-10 0-18.1-8.1-18.1-18.1 0-10.1 8.1-18.2 18.1-18.2 10.1 0 18.2 8.1 18.2 18.2 0 10-8.1 18.1-18.2 18.1z"/>
</svg>